PathFileType	3	(X/Y/Z)	D:\minhoCalibration\240510\subject1_KPNP\preferred\preferred19.trc
DataRate	CameraRate	NumFrames	NumMarkers	Units	OrigDataRate	OrigDataStartFrame	OrigNumFrames
200.0	200.0	15	10	mm	200.0	305	186	
Frame#	Time	Left_Ankle_Outer1			Left_Ankle_Inner1			Left_Knee_Outer1			Left_Knee_Inner1			Left_Wrist1			Right_Wrist1			Right_Knee_Inner1			Right_Knee_Outer1			Right_Ankle_Inner1			Right_Ankle_Outer1			
		X1	Y1	Z1	X2	Y2	Z2	X3	Y3	Z3	X4	Y4	Z4	X5	Y5	Z5	X6	Y6	Z6	X7	Y7	Z7	X8	Y8	Z8	X9	Y9	Z9	X10	Y10	Z10	
305	1.515	-541.5235	162.66805	-561.64514	-581.6748	170.96291	-522.13684	-386.66617	571.05402	-427.95468	-484.4866	551.25623	-381.40912	-441.43854	1000.569	-653.79608	-662.18555	1175.5302	-413.30621	-318.88773	970.92719	-145.47649	-379.50369	1057.646	-104.22027	-440.80112	767.98602	238.84776	-467.46338	853.15106	302.82907
306	1.52	-540.18994	162.75436	-561.41028	-580.5769	171.11383	-522.35858	-386.78674	571.18524	-426.41397	-484.26437	551.06653	-380.42279	-439.24554	1002.0986	-650.78534	-665.70361	1172.2738	-411.64841	-323.17422	965.07019	-145.31055	-384.60425	1051.334	-102.5584	-449.67776	750.84241	231.38251	-477.12906	833.18671	298.53015
307	1.525	-538.70862	162.98303	-561.93329	-579.48523	171.1564	-522.97754	-386.54355	571.24957	-425.2822	-484.6391	550.90912	-379.64215	-437.0816	1003.5167	-647.87146	-668.76984	1169.325	-410.45142	-327.41345	959.44232	-145.25034	-389.88773	1044.7719	-100.69955	-459.25269	733.01154	223.75429	-486.60773	812.43213	293.05856
308	1.53	-537.35199	162.85068	-562.51196	-578.40399	171.27049	-524.07336	-386.46008	571.07898	-424.23828	-484.9541	550.61511	-379.42953	-435.08841	1004.7066	-644.96759	-671.65387	1166.34	-409.41006	-331.5639	954.02551	-145.07849	-395.53757	1037.9115	-98.488991	-467.92627	715.33771	215.27954	-496.89081	791.47595	287.17319
309	1.535	-536.18628	162.52777	-563.21613	-577.57104	170.84392	-524.9682	-386.03513	571.12793	-423.56561	-485.00046	550.08307	-379.85751	-433.03613	1005.6851	-642.2392	-674.17419	1163.5204	-408.42938	-335.57343	948.73712	-144.56474	-401.31226	1030.6163	-96.163712	-475.53098	697.09155	205.50854	-507.69501	770.12268	280.13721
310	1.54	-535.19147	162.1985	-564.1709	-576.87213	170.27875	-526.25922	-386.22687	570.59717	-422.74533	-486.02097	549.45837	-379.93976	-431.01562	1006.4374	-639.46588	-676.40369	1160.5244	-407.60727	-339.40393	943.52521	-143.59772	-407.61304	1023.0065	-93.61573	-484.9693	678.29102	196.64455	-518.70386	748.414	272.13376
311	1.545	-534.4931	161.26891	-564.80811	-576.18524	169.46741	-527.50781	-386.33768	569.98059	-422.18365	-486.53476	548.93567	-380.41791	-428.97833	1006.9465	-636.74915	-678.31366	1157.6046	-406.97379	-343.20483	938.19403	-142.08174	-414.11389	1015.0869	-91.039246	-492.54706	659.9267	186.26637	-530.05334	726.56195	262.99527
312	1.55	-533.69916	160.75465	-566.35864	-575.79919	169.07129	-528.9986	-386.43549	569.15802	-421.76822	-487.49478	547.66925	-381.0484	-426.88031	1007.2471	-634.07489	-679.90155	1154.6309	-406.59674	-346.99362	932.58838	-140.05304	-420.71393	1006.9099	-88.497765	-499.98798	641.31921	175.28557	-541.71613	704.875	253.12149
313	1.555	-533.33636	159.66333	-567.27722	-575.4234	168.27257	-530.61926	-386.50293	568.18579	-421.56693	-488.10583	546.80743	-381.57416	-424.81744	1007.2708	-631.51385	-681.14667	1151.7157	-406.55307	-351.07129	926.53076	-137.45392	-427.39526	998.42291	-86.106781	-507.52841	623.16541	163.25119	-553.44299	682.89807	241.98277
314	1.56	-532.79425	159.01457	-568.9787	-575.25134	167.33493	-532.22113	-386.52069	567.03906	-421.47189	-488.35336	545.39362	-382.7095	-423.4097	1006.9327	-628.46771	-682.17267	1148.6886	-406.51276	-355.13263	920.02692	-134.61946	-434.22702	989.47296	-83.681786	-514.94598	604.95441	151.56638	-565.35687	661.24152	229.96361
315	1.565	-532.63519	157.87059	-570.2951	-575.11646	166.39656	-533.78186	-386.58087	565.73633	-421.46024	-488.98941	544.37939	-383.08734	-421.49335	1006.3909	-626.05756	-682.88776	1145.6267	-406.80783	-358.79977	913.06073	-131.80798	-441.21756	980.03729	-81.206932	-522.49524	586.99103	139.00667	-577.03723	639.85986	217.17688
316	1.57	-532.79315	156.573	-571.44537	-575.26221	165.16766	-535.25745	-386.53387	564.40649	-421.55978	-489.13632	542.57776	-384.13074	-419.65054	1005.6298	-623.69324	-683.55542	1142.4482	-406.98169	-362.77414	905.67291	-128.87749	-448.41568	970.07947	-78.769775	-530.07874	569.10168	125.91462	-588.60321	618.90906	203.60315
317	1.575	-532.7915	155.52194	-573.18488	-575.27563	163.39325	-536.4881	-386.51685	562.84216	-421.79324	-489.39972	541.19415	-384.5282	-417.72397	1004.902	-621.41223	-684.19012	1139.139	-407.24155	-366.46393	897.99231	-126.31802	-455.72711	959.711	-76.54055	-538.10291	551.81567	112.69137	-600.04791	598.80438	189.81187
318	1.58	-533.15192	154.32988	-574.58069	-575.97595	162.3378	-538.03912	-386.39243	561.24316	-422.08994	-489.34915	539.42358	-385.18829	-415.97003	1004.0468	-619.11401	-684.84021	1135.6737	-407.43045	-371.49115	889.47681	-123.36914	-463.14529	948.95502	-74.565102	-546.03198	535.03198	98.835785	-611.05518	578.28802	174.7126
319	1.585	-533.66736	152.93182	-576.0177	-576.10956	160.83037	-539.2749	-385.92316	559.72571	-422.6445	-489.22766	537.67407	-385.69354	-414.25385	1003.168	-616.99152	-685.7674	1131.981	-407.49326	-376.38028	880.43207	-121.21402	-470.61462	937.82538	-72.914383	-554.12286	518.16364	84.595772	-622.14026	558.82465	159.86375
